<mxfile host="app.diagrams.net" modified="2022-04-09T10:01:37.740Z" agent="5.0 (Windows NT 10.0; Win64; x64) AppleWebKit/537.36 (KHTML, like Gecko) Chrome/100.0.4896.75 Safari/537.36" etag="OhQ_-AMz5F5f9b0vJ4PO" version="16.6.3" type="github">
  <diagram name="Page-1" id="74e2e168-ea6b-b213-b513-2b3c1d86103e">
    <mxGraphModel dx="1422" dy="738" grid="1" gridSize="10" guides="1" tooltips="1" connect="1" arrows="1" fold="1" page="1" pageScale="1" pageWidth="1100" pageHeight="850" background="none" math="0" shadow="0">
      <root>
        <mxCell id="0" />
        <mxCell id="1" parent="0" />
        <mxCell id="rZxNloZKrkbENFXBVxrz-1" value="Docker Compose&lt;br&gt;（docker-compose-yaml）" style="rounded=0;whiteSpace=wrap;html=1;" vertex="1" parent="1">
          <mxGeometry x="50" y="410" width="180" height="60" as="geometry" />
        </mxCell>
        <mxCell id="rZxNloZKrkbENFXBVxrz-3" value="Dockerfile" style="rounded=0;whiteSpace=wrap;html=1;" vertex="1" parent="1">
          <mxGeometry x="413" y="480" width="120" height="60" as="geometry" />
        </mxCell>
        <mxCell id="rZxNloZKrkbENFXBVxrz-5" value="" style="shape=flexArrow;endArrow=classic;html=1;rounded=0;" edge="1" parent="1">
          <mxGeometry width="50" height="50" relative="1" as="geometry">
            <mxPoint x="313" y="509.5" as="sourcePoint" />
            <mxPoint x="383" y="509.5" as="targetPoint" />
          </mxGeometry>
        </mxCell>
        <mxCell id="rZxNloZKrkbENFXBVxrz-8" value="" style="shape=flexArrow;endArrow=classic;html=1;rounded=0;" edge="1" parent="1">
          <mxGeometry width="50" height="50" relative="1" as="geometry">
            <mxPoint x="313" y="369.5" as="sourcePoint" />
            <mxPoint x="383" y="369.5" as="targetPoint" />
          </mxGeometry>
        </mxCell>
        <mxCell id="rZxNloZKrkbENFXBVxrz-9" value="Dockerfile" style="rounded=0;whiteSpace=wrap;html=1;" vertex="1" parent="1">
          <mxGeometry x="413" y="340" width="120" height="60" as="geometry" />
        </mxCell>
        <mxCell id="rZxNloZKrkbENFXBVxrz-10" value="&lt;img src=&quot;data:image/png;base64,iVBORw0KGgoAAAANSUhEUgAAAEAAAABACAYAAACqaXHeAAAACXBIWXMAAAsSAAALEgHS3X78AAAV/0lEQVR42s1aC3RU1bmemYSXCMwECI8kM5NAQEyIUK0stMitFrH2VgUtl17tw0zOgfCs4oPeSnt7l33Z2ruudbX4RkJ4JYhY5QKi1lvfFATJc8JLELhWrJZSEjIzZ9/v3/vfZ/acJNDE69Ks9bvP7LP3v//n9//7oM/3Kfw1lkZ8TSVRX11ZGM9RX2NJxI/fWeaapgmj+2D+Uszf3FQandVUGhmbySMaAGVJXiC5h8fP5V/j+AIIGHUFhXJkhKymkkggQ/HS6OTGC8O/bioramkaXyQOji8UB0D43Q76I/bNx5oRGbyJT2nUTzwbSovAl/hHPyeKQxApUKkaoXSg0evtkmgEwi+BEjvipRFx7AvFoqVwiGgYPUxgLgWDpBrx+1DxMPHeRaME1n4EfitB0xABgbTxIgFQloqqqI4U356yYZ+B0hyO/OxnwfzpNZG+mLseCtRAyb8dLSsU75JyY0Y6h2Zfn/jwiYdTB66f5jSOzXPgeedI5a3O0TsWJBvHFSRaEBFHy4rE/vFRAZ7vgJbCiIWZRo1kSYPIqIi4TvhU/0jphpJCOUpvKwG83i6FID/BfMshKPIeFI+XRsnTCSiXrC8IOvWRwU7r3j0Cf86pV14WbfFGh56PzI+Jutx+DtY6cn1JJHVQGqOQouLvoFrMXwej9jGcIfGlsTSdFk1GhHxypcFIW7ZRPkf8jfLAqOmNIA79VtP4wm2g5LGJo8UBeBueTeF3AuRAeCc+qVQcXTLfOfnCVsdJJoT378TDD4qDN17rNH9xnDRCI1FJJAlKNMOIR8oIL6JkjDjoP+CAcR7wJawISDlL0jL32NuuRWVuy/zzAtokCPIAFD16ZMIocbgkLBpHDxf1hUMS9dHBqYbCIQ7y3IHnpQEO3HC1+N97l4kTj/5WfPjYcnHyxW1ScSeVEm37WsTpPbvERxvWine/M0sAF6QBcAZFkDQIUiOxf3xh6gBHFni2gzZj3Teh/ADDISRblhkR3f6rK1E5Xl8iPe43rDwMVAmmr5JXjkHxFijdUJSbhIcTB2+6Fvn8Xee9xXMEjfgtyPMNo3JFfTgHFBJ1w/uLuryBmBsmWpsboHyclCF8EA1jRggYTDQrxQXOF29ekO9sig5xHhnW33lx1DCnAalxoKxIYgVFxWEQ5DkMOf+TSqupx4mJxT0P/4NlRX7D21NxwGOIghNk/XepdCG0G0YPTxyceU3qr89tchIf/Jm8KfNZhzV5N3HiA4H3FN4CoCeaJhaLZlB9dIg4bH9LHF92lwA2UMqIOPiS8m/DCC8VjxCbCoeKWtDK/KC48zyfuPs8n3NfqJeoLQg5OwhAgRWgJAEmASfthRHeAn1HTJ8i5T9cNqr7yiPM5HhswuiBYPo05R4p3kKAVhKlvE42FI9wDnz9KifV2tpBaU3mH9YJrBfYR8aT1HhBvvQ+hTpCWbyB388iMmpgnPWgWtBGGKC6ICSWDfCLH5zvE3fBEIv6+pzv9/c5a/IG0X5HllNgBT1TVBDtGlcwlXTYc2E40G0D/KF4hNy0bdSw6fsh2D54G4dQzqXkgSQ8Str+a6ZIz/8jf7QO6xEFIwU1QaQ0eb2JAPOi0dIgO2GAF8jzRbmuEZ5iAyzt7xNL+vmkIZbnnie2Yn43IgUpQRhD3nfgIAfpm4DcoqogeA3psC6S030DrCwIyk2P5w+6en0kR/wRytJBdECzQmfRCIGRAmLfVy4THz75iGhraYaXTwsnmRSO48iRflOO/6XqcSh/hUoBKA2Qk8+EA/XgXzdyACJjuIiXjZJRRrlP0bAF7ykCqmCAXyD01yEV3sI+yv99nC5xpncAnC8WD3fWRnIcKE8GuNrUpVt/q8Ihuak6HLp6VTgonkT9rkH9fglC4iD3UPIaARcp0QTh9315kjg465/FoVtulOO+KydJT+8d3EvsHdJHrpNGgNdbpnxBHPrmDeLonQvFB797QHz4+EOi6eKx0jiM/lLB3fgNIJRG2U84ofJcviNCqIutMNSacMhZATmhsLMaYAsdppm69MgAZMVqxUwyXqGYO/8NVP8ThCJBWwh8oDwJ3oDwphaXUJ+igyg+uQxKLhJ/fuBX4sOVj4mT27fIqEidOpWBE1QiUTpVhLCSWlFupuRvbYA3YMjfFw0l2QTJBVkdkhOUWIs5RM3XlA6hrE9igOkbIiGhjbBKMg7SgXJ8GgK/gvJF3qGwJBRvZNKKNF8yThy7507R2tTQARec9nY5fryxRpZJCY6G8l4j1MHI/4OI2xAdLOAQikwpB8lVrWRLkbz4/TFoFOvi77YBwEyOayI5A8Hg90+qw7SFpSGIeF4AaMTz8PzbRg1vIuFJGQhN9Z9y/NDs68RHNatF8q8fu0ZoP3ZUxC+7SKXG+EJX6SYjv4kv8Ud+S+OvZKU1VanoTK1Whthy79A+8kb5VHRIoMd9gK4E9PfC6OFVzyHccHCKwy1DgJUcFfRMYfk6lCElWjhPGzka0DCh/g+W2PD+r34qzrx7UBxZEFMYom6CKq045N+8IE88mw7zDorrc6G081xRrrNrXD6d9zai8Vbs70Wy7xtf2H3lW0oL/dwP5IDh83HVcKR2oCvbjINWdyFQFUcEzddCUWpmMkCTDAFqoLShkKff8G4jG0pXAFQdAe91CHOv4muNyGPQTFFnSE0R5qb0uA8AUwkcsOqMA7jD71O56ejwBlOBkiNQGdw06EpIMpYGTa2kzHWq/5Tf46nBKpSGIp5UdjXProxLGEBYUMfGbeb7At0bwCe1eVRuEmsvJx3W9qQPwGZpgCfyB82ogUAvF49I1dGNjvsAnZ/oDcRrQP5nCrsOUxM0NwE0X0N61HGeN3AZ2w4vruk6vzPS6w1OL10ZtFN2X1jgwHHOmnAO41Xwsk/SB2QxGM5YoxRLAeic7ShruxnomlkAXa93Yn4bA1VnHjRBk9ZQiNfAk9pwZwtz4rvLBFhjpMiiCKvmPoD5pLQBMPbcAKih0gDEUPcBDDgSoDrzxF4uVTqHO1Ouij29spN32kiEIYg8yS/uMbiOPIoojhCzD0hJmQuCU/8/DDBzUzSn0z6AhH+KhBzTuZA0vgXvADRFV6DpzW+dJq93EeaEE9SNUuR4o4z7gORa9fs4zizgKO5+HwBGchOYBHHImhUFg9pZwA59gA5Takd3jsvPMIAJmiilGQCnER68JS8qsxoo4x3Si+4FuWJN1ziD6ByENA1R5NU/kjcwzGDe8z4AiBxQJTE64dWxIw9tLhoqO63O+gAv0GG9LGfeqNAljsCMkHwj1lIZ29kJrlCYUyQ8Iy9DwbPiBLXnMJDDOHEaVWXD/vGFuSQ/Rn9PvghJ5RHal4Bh+yFVBlPkCXnx6AKxzRwmb79wFtBs4Eqgf5sYgiZMYsC5wFSfsSfdazj76d8a8AweV5IOcEb3o2BT4VCJAci1WTsAdhAuGec6y7VWApTuyc/mnWoZ3rnAg7yM9GjqJE3O0e668xuNO4hWnIiu7BRhqFjJR/MGTiYdVvSkDOo+AOOM6rAM6xTqrzwgbvTojfKbXZ7M3+pz9AGm4ORligBSgPKeomr1Ocoh8d8sDZnvRk7ciJqXVdQ4Gl+w/vJPch3O4nHGWhVysgzC445ZmuLmvR2h7gW6rkKXlCUkp0tUV/ltXrTM/sM807gkud8CeH+yijvBT1oGv8F9QML8JgAMcLyoHzeA7tUxGTX6H+4DzHaX+ggK5zqPtz1RpxXXZZrkTK2PyD5AGaBHnWCBChuMX64Bs3VKwHayLB3E1085elE/7unSzla+Omt36fZnNlma6jIvSY73I4hWnL4HVIVD6yB7H3airwcGCPqq+JsAGHy3Khw8TIzXq48NKR0RJID+VuBF/Xjm9zqJ7LqBWeHpA6r5wrSrkzDfLe8KwykV6CznybS3tRxSaXISZH4dst/o7Wd69IfNSIXBOiIGgObCEDvX8oHV6dRIcXoI3SpLL47t6EUCPooWAjMCRKrxZDR9nY17ukiqHkaYa29TFCYIR56C0aFwCrJtAk03UthP8mtn9iQFtPeJgftNrSoykN5Nx3wtrN1GAnDrmfSmB4OmROd3OgFN71cf00D0qa2LME/Kbk+CZ+gEZHkQdFFa8SDJl6WVl07sSQoYymuD+L0fFyHMGNBPYIhDtRCqJhLKACIzKtKgWeB+E/ACJ90palQZ6zTMa90UDNbjzCWg4a6sQHqleMi3PCxl81X1xPOdV4SgMgYxlc/BLLO0YP58vL8F716s5rBcnU6PjKigZ2qDCcwoxKnVpW8B69NlLENxN8zVV94tUHImnJKdVlwqHdBeXiWdFvJ9Kn9kBDJANXCBDeI304ONcSmU/R3WndgAwc8GmlwK6RJjKi5TaV3YDfOPQMuh1MUZskBxlechA68+JcW9f2vCRoUIq8jg8PMbITkM84tAu7oCTQ+R4ilKIwp18IqD51LwH2lEol8qDmV/esUk363WHDkfi9mf3f8jRBGh8i2kAIhyMZzGChUloekYazRo6g8s3Fe4+b1OKh58Deturs4f1FfzuHfq5N6YCzw6Jo8VtoiyyyusrFiFlZ6r+CwNwemhw7FKlaEsT9iOhffuw7rjlBobozlScRgohXcvwHhf64p/eYXt14p6/3QEfKaR4MEB36IRPk4NGSFUlgJG1ORA6Zsw3o338/A8Qb+rze3j+/Ulpb1Y2QlQ6n549lr+HeBxEAzyA8zfjgjo05VhPvM/DUwr82XvQBEQqAp3/u903HlmLZl5g/b0UNDxhYu+JyqsOQKKXu5GQ8x6guaJYKCfqwixAp+bCOigXH7QTQ+laNAvQTMczKaSRvcODaqGl6eQ4vD06bmV80nRhZwK/aBsPbyfkoaJ2S+xAXyfWwN05w+eDvB4GYyQKo/ZyTnKAHONCNi8YOFiFQEV9hM8F+gxCJLliMorLGNOoap+N2fuPBbQToMOPRtrIAR5SINWl+eVG4itni3lQcnLjYDLMe+AT3JuRwMU430N9lThfX4mSKYBsZzlU3Kpc9i4pvKWHy/15gAtLJdzdlY5A8utPKc3lyulA1rYtPekAllaGNMg6rftghXN0xnYE8hEe6tXpgEsZYAKZQCMvbqsEBWuY/wxKpEx06G2H/LQnFtNys2UwYJsFjLgiY7eprEkc2bCh4Gp3Q/U1+PlLH2ANoQWKOY9o4KMZvU2Q5hAD79FBwOwnDEV8loZv2EMr1N64fxeHc+zXaUGgOkq0AEcNo8FzoXwS7B5M+abQK9gXamH8T+BHgLtxPsjcn/MehH7fgg+Ee2J8rTS+rwsLSjWzsb7agi0C3uaMb6G98vx7hKMk2QExOwMA/DeKXi/G3Nv4P1EXQW08tiXh/Puwe9tWNOAM+rx/lnsWQzKyYgAvJxDgIIcF5g4BUJttY9Vzluo5iqsFL3HulpWKgTGayx7riDBaCQiRLbnVIrKeQtI2L9hzSIz59kIWRxlF+P9LtqvedB+GivnL6T9yHlrBxQ5g70pxoBKHcp49+o8rJu/YDGtfYoVymb5bsK+j0kOkp/4EtEzy3YMZ1eYGHDXXLzAZBsOS5ISJAiYtNFGOpzQlhoPGIPaz3focIzttI4YQyhHGwQHJEkBuSZm/SyNM0p58L0K1C73QUFaT2fSXhoxlyCl1bNMgQTzrWTj9cXcbmWwSnq/tdxywe1L2pBY78pPpHoJu5VGJZt9u960hCyDiQSFHChJyDtn7nxSei82PVju1mDr6XnSQ1YrR8ybUM7CmqkwwkzQw2RIFuDM3Eria/2rAXBRrPmYlMNzK484z9oOniuw9g+ktNwfs9qlAWIdDNAHtMsw/haD/1a11mrj6D2E58cwPgE+B+kd5HM4yp7XEXBHpYqAhM45KVjMul97TYeWCkWrTTGyHuq8jttloCbioRoV6wD49mcB1ypjawNaO3FemacKXIpzmzkCkgYIGgaw3iYD2DKK7K2cGoRlJ8ho7Jx1HlAeCLoL8nxABsL7WToC0gZAFPBhq4yNvVix7SQUh+m2s/UV2DMAgh/UuYdDr8PvXIosPMt0wZp9mAu55VeheoBBrhDvPpCdICLBxABpgAo7bYCYxQaw+lPrTAZQkWU/Dyoq95bqmDUM8o9wgdk1QMw+w7l/HIuGsDeyeRwOOqmZY+NvwXwaxlmgGZhPU8z+F4xX4X0trVV4Yf8YgszW53CYWmzY3roxKlfX3N48v0w5RkWcGwEVHQywxTD86nnzFxHv0yqKbXSS1uvY+1/Ycwsoz4jUbG8EtBIYguE9bOlsoy2VNZnROUWjRteuiFIJ1Mp5txp7fsbgk1TgZ41l3n6lvO4o3U7wigwQ7CIC8LzFUIow5rDEKZIToC4rC1cEvP+LLN0x1T3KiNMGkPmGDaAy93bl1lV7GocjtaYpQl/acy4iEFy0+DZS4kegX3D1cCDAKdDIdIdmuy0qnv3s6YkEzFSGzx4BygC6gcNYAMVrY9xCpyuA5VYnvH8fukzIiIAYhQuQGTSKDeDXHRvGifxelaeY9RL2zQcRqCyhSiIp/XwHnu/EeDeEtZjHv3NpbOdoutzTG+gw5o7UmsnpdoZBdz7LlWkAjgC+l2QbzVIpzr8dcqzCnr0uOHJK4bw95XS2EQGkYBs2Fuv+Oi2UfT5+H9XNDoR6vbsXLij0DQZQXR6XswOy5b1D9u/y/qGBcCN7vk2ur3Cvw5kpYGCATt2OdwUrGzJfDF7PcD+QYCD+aicGsEazwJybLg48rNZZrWzB+80rLOXu4tnf1r9zsPfKcvpyoy8/MSsIOs6lUd/lb+ncWPYSNnSKGiMGz0WdVoF0BND3wd/gjKYYt/Qdb73WOIUr1OfMU7ii+wBpgJisj2wAnYvsEWzGXDsDYZJLzXq8/yLGvhLNK6zBYHoznpv5gG3qPqDLm/VvnAZtGki5onyJIo+MBqomjFHn2IQXCa4G30unQEYf8DwbYDbxtiAXA942yPl18B0KgwwBXYvnP3GT1s4RcI3bCbIBToPcCEjf7dUFBgwXcsWAYBaXM9mtHcYcWf4j3QDxQYgqO8e8tmLuJQbDNgPgZBXSrSuFqARAGIA6QZbvNjcFuBO05ygjs7zX6VacDExGkEriXgK5Tqr1Er84goELhDf4z1I+oLVcdl5pDODPz/pjiUbn79tsZdk+x1Tvz7lFKZLSlxD3ApMJqEGse5mMwOXyjIwsVYEw2u36bhBTn8T+zvItZWf01aDGCm43cObH2ojlMn0oYuVXJepw26nKKcC3UIWsS7VXppPA/IExTt/czC866Ry2088V9ldA1GDIw0gZYszNBw6yt0PIy4zS5nPrLo/Yvwzz7+tmSfNQ9wCbrsYL6Yq9cNFt3NlZVxm5vEJ/FAWP+0zekHEy1j5HdxHSS/PmfoSMsgX7S8w9pNBMHPhLjGP1Pd4DHu5XHPNjRkzmvzUP8z/E/FLQtyHQOKMxCZR7vtmbX4DwLgTeN2H/j/D+lxB+KfhdrT+uYEQps++nVtqs9ZgfKD+Lx+w7MNfPSFlDNvsCzMUw3gv6OWRdAJrg/XDyf1bdPVoLc56bAAAAAElFTkSuQmCC&quot; width=&quot;64&quot; height=&quot;64&quot;&gt;" style="rounded=0;whiteSpace=wrap;html=1;" vertex="1" parent="1">
          <mxGeometry x="623" y="320" width="120" height="90" as="geometry" />
        </mxCell>
        <mxCell id="rZxNloZKrkbENFXBVxrz-11" value="" style="rounded=0;whiteSpace=wrap;html=1;" vertex="1" parent="1">
          <mxGeometry x="623" y="480" width="120" height="100" as="geometry" />
        </mxCell>
      </root>
    </mxGraphModel>
  </diagram>
</mxfile>
